<mxfile host="app.diagrams.net" modified="2023-09-25T05:04:07.199Z" agent="Mozilla/5.0 (Windows NT 10.0; Win64; x64) AppleWebKit/537.36 (KHTML, like Gecko) Chrome/117.0.0.0 Safari/537.36 Edg/117.0.2045.31" etag="JU61mhmk3BT9tLVCfUoJ" version="21.7.5" type="github">
  <diagram name="第 1 页" id="5zRN-lSyjljN8DI6LfEC">
    <mxGraphModel dx="1426" dy="785" grid="1" gridSize="10" guides="1" tooltips="1" connect="1" arrows="1" fold="1" page="1" pageScale="1" pageWidth="827" pageHeight="1169" math="0" shadow="0">
      <root>
        <mxCell id="0" />
        <mxCell id="1" parent="0" />
        <mxCell id="BYz-LKBrRwKmEaG4ZFrs-1" value="&lt;h1&gt;MVP&lt;/h1&gt;&lt;div&gt;需求:&lt;/div&gt;&lt;p&gt;方块，文字，连线&lt;/p&gt;&lt;p&gt;本地保存&lt;/p&gt;&lt;p&gt; Konva.js&lt;br&gt;&lt;/p&gt;" style="text;html=1;strokeColor=none;fillColor=none;spacing=5;spacingTop=-20;whiteSpace=wrap;overflow=hidden;rounded=0;" vertex="1" parent="1">
          <mxGeometry x="40" y="40" width="190" height="210" as="geometry" />
        </mxCell>
      </root>
    </mxGraphModel>
  </diagram>
</mxfile>
